{
  "accessors": [
    {
      "bufferView": 2,
      "componentType": 5126,
      "count": 6961,
      "max": [
        0.5054720044136047,
        0.4988807141780853,
        0.00041306018829345703
      ],
      "min": [
        -0.1639540046453476,
        -0.48918330669403076,
        -1.921083927154541
      ],
      "type": "VEC3"
    },
    {
      "bufferView": 2,
      "byteOffset": 83532,
      "componentType": 5126,
      "count": 6961,
      "max": [
        0.9994207620620728,
        0.9999475479125977,
        0.9998250007629395
      ],
      "min": [
        -0.9999990463256836,
        -0.9999475479125977,
        -0.999267578125
      ],
      "type": "VEC3"
    },
    {
      "bufferView": 1,
      "componentType": 5126,
      "count": 6961,
      "max": [
        0.9993720054626465,
        0.9979439973831177
      ],
      "min": [
        0.0008319999906234443,
        0.002337000099942088
      ],
      "type": "VEC2"
    },
    {
      "bufferView": 0,
      "componentType": 5125,
      "count": 32520,
      "type": "SCALAR"
    }
  ],
  "asset": {
    "extras": {
      "author": "Ameer Studio (https://sketchfab.com/uchiha.321abc)",
      "license": "CC-BY-4.0 (http://creativecommons.org/licenses/by/4.0/)",
      "source": "https://sketchfab.com/3d-models/seraphine-c4d72965ffce45b8886d1e0ceab6728e",
      "title": "Seraphine"
    },
    "generator": "Sketchfab-12.68.0",
    "version": "2.0"
  },
  "bufferViews": [
    {
      "buffer": 0,
      "byteLength": 130080,
      "name": "floatBufferViews",
      "target": 34963
    },
    {
      "buffer": 0,
      "byteLength": 55688,
      "byteOffset": 130080,
      "byteStride": 8,
      "name": "floatBufferViews",
      "target": 34962
    },
    {
      "buffer": 0,
      "byteLength": 167064,
      "byteOffset": 185768,
      "byteStride": 12,
      "name": "floatBufferViews",
      "target": 34962
    }
  ],
  "buffers": [
    {
      "byteLength": 352832,
      "uri": "scene.bin"
    }
  ],
  "extensionsRequired": [
    "KHR_materials_pbrSpecularGlossiness"
  ],
  "extensionsUsed": [
    "KHR_materials_pbrSpecularGlossiness"
  ],
  "images": [
    {
      "uri": "textures/Mat_cwfyfr1_userboy17.bmp_diffuse.png"
    }
  ],
  "materials": [
    {
      "doubleSided": true,
      "extensions": {
        "KHR_materials_pbrSpecularGlossiness": {
          "diffuseFactor": [
            1.0,
            1.0,
            1.0,
            1.0
          ],
          "diffuseTexture": {
            "index": 0
          },
          "glossinessFactor": 0.0,
          "specularFactor": [
            0.0,
            0.0,
            0.0
          ]
        }
      },
      "name": "Mat_cwfyfr1_userboy17.bmp"
    }
  ],
  "meshes": [
    {
      "name": "cwfyfr1_Mat_cwfyfr1_userboy17.bmp_0",
      "primitives": [
        {
          "attributes": {
            "NORMAL": 1,
            "POSITION": 0,
            "TEXCOORD_0": 2
          },
          "indices": 3,
          "material": 0,
          "mode": 4
        }
      ]
    }
  ],
  "nodes": [
    {
      "children": [
        1
      ],
      "matrix": [
        0.0017949509201571345,
        0.0,
        0.0,
        0.0,
        0.0,
        3.9855916792611235e-19,
        -0.0017949509201571345,
        0.0,
        0.0,
        0.0017949509201571345,
        3.9855916792611235e-19,
        0.0,
        0.0,
        0.0,
        0.0,
        1.0
      ],
      "name": "Sketchfab_model"
    },
    {
      "children": [
        2
      ],
      "matrix": [
        1.0,
        0.0,
        0.0,
        0.0,
        0.0,
        0.0,
        1.0,
        0.0,
        0.0,
        -1.0,
        0.0,
        0.0,
        0.0,
        0.0,
        0.0,
        1.0
      ],
      "name": "d780ffd0fb544b99b0520ed27a08d076.fbx"
    },
    {
      "children": [
        3
      ],
      "name": "RootNode"
    },
    {
      "children": [
        4
      ],
      "matrix": [
        467.905517578125,
        0.0,
        0.0,
        0.0,
        0.0,
        -0.0001320101692462894,
        467.9055175781064,
        0.0,
        0.0,
        -467.9055175781064,
        -0.0001320101692462894,
        0.0,
        0.0,
        0.0,
        0.0,
        1.0
      ],
      "name": "cwfyfr1"
    },
    {
      "mesh": 0,
      "name": "cwfyfr1_Mat_cwfyfr1_userboy17.bmp_0"
    }
  ],
  "samplers": [
    {
      "magFilter": 9729,
      "minFilter": 9987,
      "wrapS": 10497,
      "wrapT": 10497
    }
  ],
  "scene": 0,
  "scenes": [
    {
      "name": "Sketchfab_Scene",
      "nodes": [
        0
      ]
    }
  ],
  "textures": [
    {
      "sampler": 0,
      "source": 0
    }
  ]
}
